<svg xmlns="http://www.w3.org/2000/svg" viewBox="0 0 1280 256">
  <style>
    /* The animation:
       - 0%: tile is off (black, no glow)
       - 0%-20%: quick fade‑in to full brightness (peak color, no glow)
       - 20%-50%: holds full brightness (peak color, no glow)
       - 50%: glow is applied (full drop-shadow to left)
       - 50%-90%: gradual fade‑out while glow remains, then starts to reduce
       - 90%-100%: glow is reduced to nothing and the tile becomes black */
    @keyframes fadeInOutGlow {
      0% {
        fill: #000000;
        filter: none;
      }
      20% {
        fill: var(--peak-color);
        filter: none;
      }
      50% {
        fill: var(--peak-color);
        filter: drop-shadow(-2px 0 5px var(--peak-color));
      }
      90% {
        fill: var(--peak-color);
        filter: drop-shadow(-2px 0 2px var(--peak-color));
      }
      100% {
        fill: #000000;
        filter: none;
      }
    }
    .tile {
      animation: fadeInOutGlow 3.2s ease-in-out infinite;
    }
    /* Dark background to match GitHub theme */
    .background {
      fill: #0d1117;
    }
  </style>
  
  <!-- Background -->
  <rect class="background" width="1280" height="256" />
  
  <!-- 4 rows of 20 tiles (each 64×64) with randomized delays -->
  <g>
    <!-- Row 1 (y = 0) -->
    <rect class="tile" x="0"    y="0"   width="64" height="64" style="--peak-color: #00FF7F; animation-delay: 0.73s"/>
    <rect class="tile" x="64"   y="0"   width="64" height="64" style="--peak-color: #32CD32; animation-delay: 1.12s"/>
    <rect class="tile" x="128"  y="0"   width="64" height="64" style="--peak-color: #98FB98; animation-delay: 0.45s"/>
    <rect class="tile" x="192"  y="0"   width="64" height="64" style="--peak-color: #3CB371; animation-delay: 2.13s"/>
    <rect class="tile" x="256"  y="0"   width="64" height="64" style="--peak-color: #00FF7F; animation-delay: 0.89s"/>
    <rect class="tile" x="320"  y="0"   width="64" height="64" style="--peak-color: #32CD32; animation-delay: 1.67s"/>
    <rect class="tile" x="384"  y="0"   width="64" height="64" style="--peak-color: #98FB98; animation-delay: 0.23s"/>
    <rect class="tile" x="448"  y="0"   width="64" height="64" style="--peak-color: #3CB371; animation-delay: 1.95s"/>
    <rect class="tile" x="512"  y="0"   width="64" height="64" style="--peak-color: #00FF7F; animation-delay: 0.55s"/>
    <rect class="tile" x="576"  y="0"   width="64" height="64" style="--peak-color: #32CD32; animation-delay: 2.03s"/>
    <rect class="tile" x="640"  y="0"   width="64" height="64" style="--peak-color: #98FB98; animation-delay: 1.37s"/>
    <rect class="tile" x="704"  y="0"   width="64" height="64" style="--peak-color: #3CB371; animation-delay: 0.84s"/>
    <rect class="tile" x="768"  y="0"   width="64" height="64" style="--peak-color: #00FF7F; animation-delay: 1.50s"/>
    <rect class="tile" x="832"  y="0"   width="64" height="64" style="--peak-color: #32CD32; animation-delay: 2.24s"/>
    <rect class="tile" x="896"  y="0"   width="64" height="64" style="--peak-color: #98FB98; animation-delay: 0.64s"/>
    <rect class="tile" x="960"  y="0"   width="64" height="64" style="--peak-color: #3CB371; animation-delay: 1.82s"/>
    <rect class="tile" x="1024" y="0"   width="64" height="64" style="--peak-color: #00FF7F; animation-delay: 0.40s"/>
    <rect class="tile" x="1088" y="0"   width="64" height="64" style="--peak-color: #32CD32; animation-delay: 1.10s"/>
    <rect class="tile" x="1152" y="0"   width="64" height="64" style="--peak-color: #98FB98; animation-delay: 1.76s"/>
    <rect class="tile" x="1216" y="0"   width="64" height="64" style="--peak-color: #3CB371; animation-delay: 0.95s"/>
    
    <!-- Row 2 (y = 64) -->
    <rect class="tile" x="0"    y="64"  width="64" height="64" style="--peak-color: #3CB371; animation-delay: 1.05s"/>
    <rect class="tile" x="64"   y="64"  width="64" height="64" style="--peak-color: #98FB98; animation-delay: 0.67s"/>
    <rect class="tile" x="128"  y="64"  width="64" height="64" style="--peak-color: #32CD32; animation-delay: 1.89s"/>
    <rect class="tile" x="192"  y="64"  width="64" height="64" style="--peak-color: #00FF7F; animation-delay: 0.52s"/>
    <rect class="tile" x="256"  y="64"  width="64" height="64" style="--peak-color: #3CB371; animation-delay: 1.33s"/>
    <rect class="tile" x="320"  y="64"  width="64" height="64" style="--peak-color: #98FB98; animation-delay: 0.77s"/>
    <rect class="tile" x="384"  y="64"  width="64" height="64" style="--peak-color: #32CD32; animation-delay: 1.56s"/>
    <rect class="tile" x="448"  y="64"  width="64" height="64" style="--peak-color: #00FF7F; animation-delay: 2.17s"/>
    <rect class="tile" x="512"  y="64"  width="64" height="64" style="--peak-color: #3CB371; animation-delay: 0.88s"/>
    <rect class="tile" x="576"  y="64"  width="64" height="64" style="--peak-color: #98FB98; animation-delay: 1.42s"/>
    <rect class="tile" x="640"  y="64"  width="64" height="64" style="--peak-color: #32CD32; animation-delay: 0.39s"/>
    <rect class="tile" x="704"  y="64"  width="64" height="64" style="--peak-color: #00FF7F; animation-delay: 1.98s"/>
    <rect class="tile" x="768"  y="64"  width="64" height="64" style="--peak-color: #3CB371; animation-delay: 0.83s"/>
    <rect class="tile" x="832"  y="64"  width="64" height="64" style="--peak-color: #98FB98; animation-delay: 1.27s"/>
    <rect class="tile" x="896"  y="64"  width="64" height="64" style="--peak-color: #32CD32; animation-delay: 0.61s"/>
    <rect class="tile" x="960"  y="64"  width="64" height="64" style="--peak-color: #00FF7F; animation-delay: 1.74s"/>
    <rect class="tile" x="1024" y="64"  width="64" height="64" style="--peak-color: #3CB371; animation-delay: 0.48s"/>
    <rect class="tile" x="1088" y="64"  width="64" height="64" style="--peak-color: #98FB98; animation-delay: 1.31s"/>
    <rect class="tile" x="1152" y="64"  width="64" height="64" style="--peak-color: #32CD32; animation-delay: 0.93s"/>
    <rect class="tile" x="1216" y="64"  width="64" height="64" style="--peak-color: #00FF7F; animation-delay: 1.58s"/>
    
    <!-- Row 3 (y = 128) -->
    <rect class="tile" x="0"    y="128" width="64" height="64" style="--peak-color: #98FB98; animation-delay: 0.91s"/>
    <rect class="tile" x="64"   y="128" width="64" height="64" style="--peak-color: #3CB371; animation-delay: 1.34s"/>
    <rect class="tile" x="128"  y="128" width="64" height="64" style="--peak-color: #00FF7F; animation-delay: 0.56s"/>
    <rect class="tile" x="192"  y="128" width="64" height="64" style="--peak-color: #32CD32; animation-delay: 1.88s"/>
    <rect class="tile" x="256"  y="128" width="64" height="64" style="--peak-color: #98FB98; animation-delay: 0.62s"/>
    <rect class="tile" x="320"  y="128" width="64" height="64" style="--peak-color: #3CB371; animation-delay: 1.47s"/>
    <rect class="tile" x="384"  y="128" width="64" height="64" style="--peak-color: #00FF7F; animation-delay: 0.79s"/>
    <rect class="tile" x="448"  y="128" width="64" height="64" style="--peak-color: #32CD32; animation-delay: 1.23s"/>
    <rect class="tile" x="512"  y="128" width="64" height="64" style="--peak-color: #98FB98; animation-delay: 0.67s"/>
    <rect class="tile" x="576"  y="128" width="64" height="64" style="--peak-color: #3CB371; animation-delay: 1.91s"/>
    <rect class="tile" x="640"  y="128" width="64" height="64" style="--peak-color: #00FF7F; animation-delay: 0.49s"/>
    <rect class="tile" x="704"  y="128" width="64" height="64" style="--peak-color: #32CD32; animation-delay: 1.65s"/>
    <rect class="tile" x="768"  y="128" width="64" height="64" style="--peak-color: #98FB98; animation-delay: 0.88s"/>
    <rect class="tile" x="832"  y="128" width="64" height="64" style="--peak-color: #3CB371; animation-delay: 1.29s"/>
    <rect class="tile" x="896"  y="128" width="64" height="64" style="--peak-color: #00FF7F; animation-delay: 0.72s"/>
    <rect class="tile" x="960"  y="128" width="64" height="64" style="--peak-color: #32CD32; animation-delay: 1.54s"/>
    <rect class="tile" x="1024" y="128" width="64" height="64" style="--peak-color: #98FB98; animation-delay: 0.85s"/>
    <rect class="tile" x="1088" y="128" width="64" height="64" style="--peak-color: #3CB371; animation-delay: 1.12s"/>
    <rect class="tile" x="1152" y="128" width="64" height="64" style="--peak-color: #00FF7F; animation-delay: 0.65s"/>
    <rect class="tile" x="1216" y="128" width="64" height="64" style="--peak-color: #32CD32; animation-delay: 1.47s"/>
    
    <!-- Row 4 (y = 192) -->
    <rect class="tile" x="0"    y="192" width="64" height="64" style="--peak-color: #3CB371; animation-delay: 1.02s"/>
    <rect class="tile" x="64"   y="192" width="64" height="64" style="--peak-color: #00FF7F; animation-delay: 0.58s"/>
    <rect class="tile" x="128"  y="192" width="64" height="64" style="--peak-color: #32CD32; animation-delay: 1.66s"/>
    <rect class="tile" x="192"  y="192" width="64" height="64" style="--peak-color: #98FB98; animation-delay: 0.74s"/>
    <rect class="tile" x="256"  y="192" width="64" height="64" style="--peak-color: #3CB371; animation-delay: 1.37s"/>
    <rect class="tile" x="320"  y="192" width="64" height="64" style="--peak-color: #00FF7F; animation-delay: 0.92s"/>
    <rect class="tile" x="384"  y="192" width="64" height="64" style="--peak-color: #32CD32; animation-delay: 1.84s"/>
    <rect class="tile" x="448"  y="192" width="64" height="64" style="--peak-color: #98FB98; animation-delay: 0.66s"/>
    <rect class="tile" x="512"  y="192" width="64" height="64" style="--peak-color: #3CB371; animation-delay: 1.49s"/>
    <rect class="tile" x="576"  y="192" width="64" height="64" style="--peak-color: #00FF7F; animation-delay: 0.83s"/>
    <rect class="tile" x="640"  y="192" width="64" height="64" style="--peak-color: #32CD32; animation-delay: 1.25s"/>
    <rect class="tile" x="704"  y="192" width="64" height="64" style="--peak-color: #98FB98; animation-delay: 0.57s"/>
    <rect class="tile" x="768"  y="192" width="64" height="64" style="--peak-color: #3CB371; animation-delay: 1.73s"/>
    <rect class="tile" x="832"  y="192" width="64" height="64" style="--peak-color: #00FF7F; animation-delay: 0.81s"/>
    <rect class="tile" x="896"  y="192" width="64" height="64" style="--peak-color: #32CD32; animation-delay: 1.35s"/>
    <rect class="tile" x="960"  y="192" width="64" height="64" style="--peak-color: #98FB98; animation-delay: 0.68s"/>
    <rect class="tile" x="1024" y="192" width="64" height="64" style="--peak-color: #3CB371; animation-delay: 1.47s"/>
    <rect class="tile" x="1088" y="192" width="64" height="64" style="--peak-color: #00FF7F; animation-delay: 0.89s"/>
    <rect class="tile" x="1152" y="192" width="64" height="64" style="--peak-color: #32CD32; animation-delay: 1.68s"/>
    <rect class="tile" x="1216" y="192" width="64" height="64" style="--peak-color: #98FB98; animation-delay: 0.74s"/>
  </g>
</svg>
